<svg width="512" height="512" viewBox="0 0 512 512" fill="none" xmlns="http://www.w3.org/2000/svg">
    <g clip-path="url(#clip0_61_118)">
        <path d="M0 128C0 57.3076 57.3076 0 128 0H384C454.692 0 512 57.3076 512 128V384C512 454.692 454.692 512 384 512H128C57.3076 512 0 454.692 0 384V128Z" fill="black"/>
        <path d="M205.167 410C233.411 410 256.333 387.077 256.333 358.833V307.667H205.167C176.923 307.667 154 330.589 154 358.833C154 387.077 176.923 410 205.167 410Z" fill="#0ACF83"/>
        <path d="M154 256.5C154 228.256 176.923 205.333 205.167 205.333H256.333V307.667H205.167C176.923 307.667 154 284.744 154 256.5Z" fill="#A259FF"/>
        <path d="M154 154.167C154 125.923 176.923 103 205.167 103H256.333V205.333H205.167C176.923 205.333 154 182.411 154 154.167Z" fill="#F24E1E"/>
        <path d="M256.333 103H307.5C335.744 103 358.667 125.923 358.667 154.167C358.667 182.411 335.744 205.333 307.5 205.333L256.333 205.333V103Z" fill="#FF7262"/>
        <path d="M358.667 256.5C358.667 284.744 335.744 307.667 307.5 307.667C279.256 307.667 256.333 284.744 256.333 256.5C256.333 228.256 279.256 205.333 307.5 205.333C335.744 205.333 358.667 228.256 358.667 256.5Z" fill="#1ABCFE"/>
    </g>
    <defs>
        <clipPath id="clip0_61_118">
            <rect width="512" height="512" fill="white"/>
        </clipPath>
    </defs>
</svg>
