<svg width="512" height="512" viewBox="0 0 512 512" fill="none" xmlns="http://www.w3.org/2000/svg">
    <g clip-path="url(#clip0_61_101)">
        <path d="M0 128C0 57.3076 57.3076 0 128 0H384C454.692 0 512 57.3076 512 128V384C512 454.692 454.692 512 384 512H128C57.3076 512 0 454.692 0 384V128Z" fill="#0058CC"/>
        <path fill-rule="evenodd" clip-rule="evenodd" d="M297.8 92.1115C201.005 65.6812 91.0017 117.183 55.6636 221.29C20.0819 326.124 76.4464 439.877 181.554 475.364C286.667 510.852 400.72 454.638 436.303 349.806C465.378 264.144 432.769 176.734 367.688 126.81L364.17 163.949C399.573 201.269 415.454 254.988 397.224 308.697C371.525 384.41 286.787 424.21 207.954 397.593C129.121 370.976 86.0476 288.023 111.746 212.311C134.486 145.311 203.459 107.741 270.309 116.053L297.8 92.1115ZM250.595 217.817C277.012 212.745 304 238.812 294.642 266.378C288.113 285.614 266.584 295.728 246.554 288.964C226.523 282.201 215.58 261.123 222.11 241.887C226.497 228.958 237.662 220.15 250.595 217.817ZM240.776 180.121C227.124 182.584 214.402 188.537 203.991 197.335C194.06 205.727 186.266 216.74 181.832 229.803C175.114 249.595 177.409 270.383 186.551 287.989C195.772 305.746 211.966 320.272 232.95 327.358C253.923 334.439 275.64 332.707 293.791 324.181C311.767 315.738 326.246 300.617 332.966 280.82C337.207 268.327 337.809 256.008 335.592 244.515C333.986 236.186 330.89 228.248 326.616 220.948L334.407 182.013C335.851 183.437 337.259 184.897 338.626 186.392C352.002 201.021 361.623 219.043 365.44 238.822C368.611 255.249 367.766 272.806 361.745 290.547C352.269 318.464 331.947 339.743 306.755 351.577C281.736 363.328 251.906 365.749 223.201 356.06C194.503 346.37 172.283 326.368 159.56 301.866C146.757 277.211 143.578 247.999 153.054 220.078C159.314 201.633 170.329 186.073 184.371 174.21C198.743 162.066 216.334 153.829 235.253 150.386L235.247 150.354C248.694 147.773 262.169 147.967 275.097 150.472L247.702 179.152C245.452 179.369 243.203 179.692 240.955 180.123L240.776 180.121Z" fill="white"/>
        <path fill-rule="evenodd" clip-rule="evenodd" d="M378.922 33.5793L418.061 32.2283L382.758 93.5695L357.666 102.85L270.824 261.382L244.187 246.914L331.619 87.3034L326.231 62.7669L358.917 0L378.922 33.5793Z" fill="white"/>
    </g>
    <defs>
        <clipPath id="clip0_61_101">
            <rect width="512" height="512" fill="white"/>
        </clipPath>
    </defs>
</svg>
