<svg width="512" height="512" viewBox="0 0 512 512" fill="none" xmlns="http://www.w3.org/2000/svg">
    <g clip-path="url(#clip0_103_31)">
        <path d="M0 128C0 57.3076 57.3076 0 128 0H384C454.692 0 512 57.3076 512 128V384C512 454.692 454.692 512 384 512H128C57.3076 512 0 454.692 0 384V128Z" fill="white"/>
        <path d="M188.456 295.772C153.901 280.1 134.969 276.169 101.371 271.022C93.1128 269.757 87.8577 271.772 87.107 287.522C86.3562 303.272 87.107 382.772 176.444 429.272C190.408 382.054 208.438 362.046 255.085 335.5C229.825 317.33 215.436 308.022 188.456 295.772Z" fill="#3C5C02"/>
        <path d="M191.326 216.25C167.981 202.836 151.537 198.25 126.763 191.5L126.502 191.448C122.137 190.718 118.471 190.105 114.805 194.5C111.051 199 102.228 225.951 101.371 271.022C134.969 276.169 153.901 280.1 188.456 295.772C207.363 262.403 243.073 234.25 255.085 234.25L255.085 155.5C226.251 173.076 211.821 185.812 191.326 216.25Z" fill="#284000"/>
        <path d="M169.555 115.75C159.902 121.75 138.938 151.313 126.763 191.5C151.537 198.25 167.981 202.836 191.326 216.25C211.821 185.812 226.251 173.076 255.085 155.5C234.198 139.509 220.796 128.661 195.856 117.298C187.465 113.593 178.745 110.038 169.555 115.75Z" fill="#3C5C02"/>
        <path d="M255.085 234.25C243.073 234.25 207.363 262.403 188.456 295.772C215.436 308.022 229.825 317.33 255.085 335.5V234.25Z" fill="#51750C"/>
        <path d="M255.085 64C244.529 64.086 216.092 89.5952 195.856 117.298C220.796 128.661 234.198 139.509 255.085 155.5L255.085 64Z" fill="#284000"/>
        <path d="M383.46 191.5C358.686 198.25 342.243 202.836 318.897 216.25C298.39 185.793 283.955 173.093 255.085 155.5L255.085 234.25C267.097 234.25 303.637 262.32 322.544 295.689C357.099 280.017 376.031 276.086 409.629 270.939C408.772 225.868 399.226 199 395.472 194.5C391.806 190.105 387.826 190.77 383.46 191.5Z" fill="#102300"/>
        <path d="M322.544 295.689C303.637 262.32 267.097 234.25 255.085 234.25V335.5C280.378 317.304 295.545 307.947 322.544 295.689Z" fill="#3C5C02"/>
        <path d="M409.629 270.939C376.031 276.086 357.099 280.017 322.544 295.689C295.545 307.947 280.378 317.304 255.085 335.5C301.693 362.031 320.597 381.989 334.556 429.189C423.893 382.689 424.644 303.189 423.893 287.439C423.142 271.689 417.887 269.674 409.629 270.939Z" fill="#284000"/>
        <path d="M176.444 429.272C211.958 447.126 227.466 447.623 255.085 448V335.5C208.438 362.046 190.408 382.054 176.444 429.272Z" fill="#284000"/>
        <path d="M255.085 64L255.085 155.5C275.972 139.509 289.374 128.661 314.314 117.298C294.078 89.5952 265.641 64.086 255.085 64Z" fill="#102300"/>
        <path d="M318.897 216.25C342.243 202.836 358.686 198.25 383.46 191.5C371.286 151.313 350.268 121.75 340.615 115.75C331.426 110.038 322.705 113.593 314.314 117.298C289.374 128.661 275.972 139.509 255.085 155.5C283.955 173.093 298.39 185.793 318.897 216.25Z" fill="#284000"/>
        <path d="M334.556 429.189C320.597 381.989 301.693 362.031 255.085 335.5V448C282.704 447.623 299.042 447.043 334.556 429.189Z" fill="#102300"/>
    </g>
    <defs>
        <clipPath id="clip0_103_31">
            <rect width="512" height="512" fill="white"/>
        </clipPath>
    </defs>
</svg>
