<svg width="512" height="512" viewBox="0 0 512 512" fill="none" xmlns="http://www.w3.org/2000/svg">
    <g clip-path="url(#clip0_116_2)">
        <path d="M0 128C0 57.3076 57.3076 0 128 0H384C454.692 0 512 57.3076 512 128V384C512 454.692 454.692 512 384 512H128C57.3076 512 0 454.692 0 384V128Z" fill="white"/>
        <path d="M55.1578 376.781L73.5586 387.405L278.551 32.3587L260.15 21.7347L55.1578 376.781Z" fill="#E535AB"/>
        <path d="M460.928 348.416H50.9438V369.664H460.928V348.416Z" fill="#E535AB"/>
        <path d="M59.0565 360.353L264.125 478.753L274.749 460.352L69.6804 341.952L59.0565 360.353Z" fill="#E535AB"/>
        <path d="M237.2 51.7719L442.269 170.172L452.893 151.771L247.824 33.3711L237.2 51.7719Z" fill="#E535AB"/>
        <path d="M59.1133 151.69L69.7373 170.091L274.806 51.6908L264.182 33.2901L59.1133 151.69Z" fill="#E535AB"/>
        <path d="M233.496 32.3626L438.488 387.409L456.888 376.785L251.896 21.7386L233.496 32.3626Z" fill="#E535AB"/>
        <path d="M88.448 137.6H67.2V374.4H88.448V137.6Z" fill="#E535AB"/>
        <path d="M444.8 137.6H423.552V374.4H444.8V137.6Z" fill="#E535AB"/>
        <path d="M251.228 453.686L260.508 469.759L438.862 366.783L429.582 350.71L251.228 453.686Z" fill="#E535AB"/>
        <path d="M472.96 381.312C460.672 402.688 433.28 409.984 411.904 397.696C390.528 385.408 383.232 358.016 395.52 336.64C407.808 315.264 435.2 307.968 456.576 320.256C478.08 332.672 485.376 359.936 472.96 381.312Z" fill="#E535AB"/>
        <path d="M116.352 175.36C104.064 196.736 76.6719 204.032 55.2959 191.744C33.9199 179.456 26.6239 152.064 38.9119 130.688C51.1999 109.312 78.5919 102.016 99.9679 114.304C121.344 126.72 128.64 153.984 116.352 175.36Z" fill="#E535AB"/>
        <path d="M39.0398 381.312C26.7518 359.936 34.0478 332.672 55.4238 320.256C76.7998 307.968 104.064 315.264 116.48 336.64C128.768 358.016 121.472 385.28 100.096 397.696C78.5918 409.984 51.3278 402.688 39.0398 381.312Z" fill="#E535AB"/>
        <path d="M395.648 175.36C383.36 153.984 390.656 126.72 412.032 114.304C433.408 102.016 460.672 109.312 473.088 130.688C485.376 152.064 478.08 179.328 456.704 191.744C435.328 204.032 407.936 196.736 395.648 175.36Z" fill="#E535AB"/>
        <path d="M256 506.624C231.296 506.624 211.328 486.656 211.328 461.952C211.328 437.248 231.296 417.28 256 417.28C280.704 417.28 300.672 437.248 300.672 461.952C300.672 486.528 280.704 506.624 256 506.624Z" fill="#E535AB"/>
        <path d="M256 94.72C231.296 94.72 211.328 74.752 211.328 50.048C211.328 25.344 231.296 5.37598 256 5.37598C280.704 5.37598 300.672 25.344 300.672 50.048C300.672 74.752 280.704 94.72 256 94.72Z" fill="#E535AB"/>
    </g>
    <defs>
        <clipPath id="clip0_116_2">
            <rect width="512" height="512" fill="white"/>
        </clipPath>
    </defs>
</svg>
