<svg width="512" height="512" viewBox="0 0 512 512" fill="none" xmlns="http://www.w3.org/2000/svg">
    <g clip-path="url(#clip0_110_10)">
        <path d="M256.124 3.87866C150.849 3.87866 120.06 3.98726 114.076 4.48373C92.4714 6.27956 79.0279 9.68115 64.3821 16.9731C53.0952 22.5777 44.1936 29.0745 35.4084 38.1816C19.4089 54.7901 9.71222 75.2229 6.20203 99.5112C4.49541 111.302 3.99894 113.707 3.8981 173.935C3.85931 194.011 3.8981 220.433 3.8981 255.872C3.8981 361.062 4.01446 391.819 4.51869 397.793C6.26409 418.815 9.56096 432.041 16.5426 446.509C29.8852 474.202 55.3681 494.992 85.389 502.749C95.7838 505.426 107.265 506.9 122.004 507.598C128.248 507.869 191.897 508.063 255.585 508.063C319.273 508.063 382.961 507.986 389.05 507.675C406.116 506.872 416.026 505.542 426.983 502.711C457.198 494.914 482.216 474.435 495.83 446.354C502.676 432.235 506.147 418.505 507.718 398.58C508.059 394.236 508.203 324.974 508.203 255.806C508.203 186.626 508.048 117.493 507.706 113.149C506.116 92.9019 502.645 79.2878 495.578 64.8979C489.779 53.1184 483.341 44.3216 473.993 35.3269C457.311 19.3933 436.909 9.69667 412.597 6.19035C400.818 4.48761 398.471 3.98339 338.197 3.87866H256.124Z" fill="url(#paint0_radial_110_10)"/>
        <path d="M256.124 3.87866C150.849 3.87866 120.06 3.98726 114.076 4.48373C92.4714 6.27956 79.0279 9.68115 64.3821 16.9731C53.0952 22.5777 44.1936 29.0745 35.4084 38.1816C19.4089 54.7901 9.71222 75.2229 6.20203 99.5112C4.49541 111.302 3.99894 113.707 3.8981 173.935C3.85931 194.011 3.8981 220.433 3.8981 255.872C3.8981 361.062 4.01446 391.819 4.51869 397.793C6.26409 418.815 9.56096 432.041 16.5426 446.509C29.8852 474.202 55.3681 494.992 85.389 502.749C95.7838 505.426 107.265 506.9 122.004 507.598C128.248 507.869 191.897 508.063 255.585 508.063C319.273 508.063 382.961 507.986 389.05 507.675C406.116 506.872 416.026 505.542 426.983 502.711C457.198 494.914 482.216 474.435 495.83 446.354C502.676 432.235 506.147 418.505 507.718 398.58C508.059 394.236 508.203 324.974 508.203 255.806C508.203 186.626 508.048 117.493 507.706 113.149C506.116 92.9019 502.645 79.2878 495.578 64.8979C489.779 53.1184 483.341 44.3216 473.993 35.3269C457.311 19.3933 436.909 9.69667 412.597 6.19035C400.818 4.48761 398.471 3.98339 338.197 3.87866H256.124Z" fill="url(#paint1_radial_110_10)"/>
        <path d="M256.008 69.8162C205.446 69.8162 199.1 70.0372 179.241 70.941C159.421 71.8486 145.892 74.9864 134.055 79.5904C121.81 84.3457 111.423 90.7067 101.074 101.059C90.7183 111.407 84.3573 121.794 79.5865 134.035C74.9709 145.877 71.8292 159.41 70.9371 179.222C70.0489 199.081 69.8162 205.43 69.8162 255.992C69.8162 306.555 70.0411 312.881 70.941 332.74C71.8525 352.56 74.9903 366.088 79.5904 377.926C84.3495 390.171 90.7106 400.558 101.063 410.906C111.407 421.263 121.794 427.639 134.031 432.394C145.877 436.998 159.41 440.136 179.226 441.044C199.084 441.947 205.426 442.169 255.985 442.169C306.551 442.169 312.877 441.947 332.736 441.044C352.556 440.136 366.1 436.998 377.946 432.394C390.187 427.639 400.558 421.263 410.903 410.906C421.259 400.558 427.62 390.171 432.39 377.93C436.967 366.088 440.109 352.556 441.04 332.743C441.932 312.885 442.165 306.555 442.165 255.992C442.165 205.43 441.932 199.084 441.04 179.226C440.109 159.406 436.967 145.877 432.39 134.039C427.62 121.794 421.259 111.407 410.903 101.059C400.547 90.7028 390.19 84.3418 377.934 79.5904C366.065 74.9864 352.529 71.8486 332.709 70.941C312.85 70.0372 306.528 69.8162 255.95 69.8162H256.008ZM239.306 103.367C244.263 103.359 249.794 103.367 256.008 103.367C305.717 103.367 311.609 103.545 331.239 104.437C349.391 105.267 359.243 108.3 365.805 110.849C374.493 114.223 380.688 118.257 387.2 124.773C393.716 131.289 397.75 137.495 401.132 146.183C403.68 152.738 406.717 162.59 407.544 180.742C408.436 200.368 408.63 206.264 408.63 255.95C408.63 305.635 408.436 311.531 407.544 331.157C406.714 349.309 403.68 359.161 401.132 365.716C397.758 374.404 393.716 380.591 387.2 387.103C380.684 393.619 374.497 397.653 365.805 401.027C359.25 403.587 349.391 406.613 331.239 407.443C311.612 408.335 305.717 408.529 256.008 408.529C206.295 408.529 200.403 408.335 180.777 407.443C162.625 406.605 152.773 403.572 146.207 401.024C137.518 397.649 131.312 393.615 124.796 387.099C118.28 380.583 114.246 374.393 110.864 365.701C108.316 359.146 105.279 349.294 104.453 331.142C103.561 311.516 103.382 305.62 103.382 255.903C103.382 206.186 103.561 200.322 104.453 180.696C105.283 162.544 108.316 152.692 110.864 146.129C114.239 137.441 118.28 131.235 124.796 124.719C131.312 118.203 137.518 114.169 146.207 110.787C152.769 108.227 162.625 105.201 180.777 104.367C197.952 103.592 204.608 103.359 239.306 103.32V103.367ZM355.387 134.28C343.053 134.28 333.046 144.275 333.046 156.613C333.046 168.947 343.053 178.954 355.387 178.954C367.721 178.954 377.728 168.947 377.728 156.613C377.728 144.279 367.721 134.272 355.387 134.272V134.28ZM256.008 160.383C203.208 160.383 160.399 203.192 160.399 255.992C160.399 308.793 203.208 351.582 256.008 351.582C308.808 351.582 351.602 308.793 351.602 255.992C351.602 203.192 308.808 160.383 256.008 160.383ZM256.008 193.934C290.28 193.934 318.067 221.717 318.067 255.992C318.067 290.264 290.28 318.051 256.008 318.051C221.732 318.051 193.949 290.264 193.949 255.992C193.949 221.717 221.732 193.934 256.008 193.934Z" fill="white"/>
    </g>
    <defs>
        <radialGradient id="paint0_radial_110_10" cx="0" cy="0" r="1" gradientUnits="userSpaceOnUse" gradientTransform="translate(137.842 546.896) rotate(-90) scale(499.684 464.872)">
            <stop stop-color="#FFDD55"/>
            <stop offset="0.1" stop-color="#FFDD55"/>
            <stop offset="0.5" stop-color="#FF543E"/>
            <stop offset="1" stop-color="#C837AB"/>
        </radialGradient>
        <radialGradient id="paint1_radial_110_10" cx="0" cy="0" r="1" gradientUnits="userSpaceOnUse" gradientTransform="translate(-80.5957 40.1993) rotate(78.6776) scale(223.363 920.944)">
            <stop stop-color="#3771C8"/>
            <stop offset="0.128" stop-color="#3771C8"/>
            <stop offset="1" stop-color="#6600FF" stop-opacity="0"/>
        </radialGradient>
        <clipPath id="clip0_110_10">
            <rect width="512" height="512" fill="white"/>
        </clipPath>
    </defs>
</svg>
