<svg width="512" height="512" viewBox="0 0 512 512" fill="none" xmlns="http://www.w3.org/2000/svg">
    <g clip-path="url(#clip0_110_10)">
        <path d="M256 46.144C324.352 46.144 332.459 46.4 359.467 47.6373C428.843 50.7947 461.248 83.712 464.405 152.576C465.643 179.563 465.877 187.669 465.877 256.021C465.877 324.395 465.621 332.48 464.405 359.467C461.227 428.267 428.907 461.248 359.467 464.405C332.459 465.643 324.395 465.899 256 465.899C187.648 465.899 179.541 465.643 152.555 464.405C83.008 461.227 50.7733 428.16 47.616 359.445C46.3787 332.459 46.1227 324.373 46.1227 256C46.1227 187.648 46.4 179.563 47.616 152.555C50.7947 83.712 83.1147 50.7733 152.555 47.616C179.563 46.4 187.648 46.144 256 46.144ZM256 0C186.475 0 177.771 0.298667 150.464 1.536C57.4933 5.80267 5.824 57.3867 1.55733 150.443C0.298667 177.771 0 186.475 0 256C0 325.525 0.298667 334.251 1.536 361.557C5.80267 454.528 57.3867 506.197 150.443 510.464C177.771 511.701 186.475 512 256 512C325.525 512 334.251 511.701 361.557 510.464C454.443 506.197 506.24 454.613 510.443 361.557C511.701 334.251 512 325.525 512 256C512 186.475 511.701 177.771 510.464 150.464C506.283 57.5787 454.635 5.824 361.579 1.55733C334.251 0.298667 325.525 0 256 0ZM256 124.544C183.403 124.544 124.544 183.403 124.544 256C124.544 328.597 183.403 387.477 256 387.477C328.597 387.477 387.456 328.619 387.456 256C387.456 183.403 328.597 124.544 256 124.544ZM256 341.333C208.875 341.333 170.667 303.147 170.667 256C170.667 208.875 208.875 170.667 256 170.667C303.125 170.667 341.333 208.875 341.333 256C341.333 303.147 303.125 341.333 256 341.333ZM392.661 88.64C375.68 88.64 361.92 102.4 361.92 119.36C361.92 136.32 375.68 150.08 392.661 150.08C409.621 150.08 423.36 136.32 423.36 119.36C423.36 102.4 409.621 88.64 392.661 88.64Z" fill="black"/>
    </g>
    <defs>
        <clipPath id="clip0_110_10">
            <rect width="512" height="512" fill="white"/>
        </clipPath>
    </defs>
</svg>
