<svg width="512" height="512" viewBox="0 0 512 512" fill="none" xmlns="http://www.w3.org/2000/svg">
    <g clip-path="url(#clip0_110_7)">
        <path d="M256 512C397.385 512 512 397.385 512 256C512 114.615 397.385 0 256 0C114.615 0 0 114.615 0 256C0 397.385 114.615 512 256 512Z" fill="url(#paint0_linear_110_7)"/>
        <path d="M173.289 274.714L203.661 358.78C203.661 358.78 207.458 366.645 211.524 366.645C215.59 366.645 276.068 303.729 276.068 303.729L343.322 173.83L174.372 253.013L173.289 274.714Z" fill="#C8DAEA"/>
        <path d="M213.559 296.273L207.729 358.238C207.729 358.238 205.289 377.225 224.271 358.238C243.253 339.251 261.423 324.61 261.423 324.61" fill="#A9C6D8"/>
        <path d="M173.837 277.713L111.36 257.357C111.36 257.357 103.893 254.327 106.298 247.458C106.793 246.042 107.791 244.836 110.778 242.765C124.621 233.116 367.004 145.997 367.004 145.997C367.004 145.997 373.847 143.691 377.884 145.225C378.882 145.534 379.781 146.102 380.487 146.873C381.194 147.643 381.683 148.587 381.905 149.609C382.341 151.413 382.524 153.269 382.447 155.123C382.428 156.727 382.234 158.214 382.086 160.546C380.61 184.365 336.433 362.131 336.433 362.131C336.433 362.131 333.79 372.533 324.32 372.89C321.993 372.965 319.674 372.571 317.503 371.731C315.331 370.89 313.351 369.622 311.68 368C293.097 352.015 228.866 308.849 214.673 299.356C214.353 299.138 214.083 298.853 213.882 298.522C213.681 298.191 213.554 297.82 213.508 297.436C213.31 296.435 214.398 295.196 214.398 295.196C214.398 295.196 326.24 195.782 329.216 185.346C329.446 184.538 328.576 184.139 327.407 184.493C319.979 187.226 191.206 268.546 176.994 277.521C175.971 277.831 174.89 277.896 173.837 277.713Z" fill="white"/>
    </g>
    <defs>
        <linearGradient id="paint0_linear_110_7" x1="256" y1="512" x2="256" y2="0" gradientUnits="userSpaceOnUse">
            <stop stop-color="#1D93D2"/>
            <stop offset="1" stop-color="#38B0E3"/>
        </linearGradient>
        <clipPath id="clip0_110_7">
            <rect width="512" height="512" fill="white"/>
        </clipPath>
    </defs>
</svg>
