<svg width="512" height="512" viewBox="0 0 512 512" fill="none" xmlns="http://www.w3.org/2000/svg">
    <g clip-path="url(#clip0_63_310)">
        <path d="M0 128C0 57.3076 57.3076 0 128 0H384C454.692 0 512 57.3076 512 128V384C512 454.692 454.692 512 384 512H128C57.3076 512 0 454.692 0 384V128Z" fill="#181627"/>
        <path d="M106.737 192.524H100.969C99.3862 192.524 97.8679 193.168 96.7484 194.314C95.6289 195.461 95 197.016 95 198.638C95 200.259 95.6289 201.815 96.7484 202.961C97.8679 204.108 99.3862 204.752 100.969 204.752H106.737C108.32 204.752 109.839 204.108 110.958 202.961C112.078 201.815 112.707 200.259 112.707 198.638C112.707 197.016 112.078 195.461 110.958 194.314C109.839 193.168 108.32 192.524 106.737 192.524ZM217.108 281.709H211.34C209.757 281.709 208.239 282.353 207.119 283.5C206 284.646 205.371 286.202 205.371 287.823C205.371 289.445 206 291 207.119 292.147C208.239 293.293 209.757 293.937 211.34 293.937H217.108C218.691 293.937 220.21 293.293 221.329 292.147C222.449 291 223.078 289.445 223.078 287.823C223.078 286.202 222.449 284.646 221.329 283.5C220.21 282.353 218.691 281.709 217.108 281.709ZM212.272 223.482C212.272 221.86 211.643 220.305 210.524 219.158C209.404 218.012 207.886 217.368 206.303 217.368H186.354C184.771 217.368 183.253 218.012 182.133 219.158C181.014 220.305 180.385 221.86 180.385 223.482C180.385 225.103 181.014 226.659 182.133 227.805C183.253 228.952 184.771 229.596 186.354 229.596H206.303C207.886 229.596 209.404 228.952 210.524 227.805C211.643 226.659 212.272 225.103 212.272 223.482ZM401.606 185.042L395.535 150.111C394.71 143.789 391.601 138.013 386.821 133.925C382.041 129.837 375.939 127.732 369.718 128.027H135.904C133.476 127.939 131.061 128.424 128.845 129.446C126.63 130.468 124.674 131.999 123.13 133.92C121.586 135.841 120.494 138.101 119.94 140.524C119.386 142.947 119.385 145.468 119.935 147.892L126.333 185.042C126.385 185.338 126.453 185.631 126.535 185.919C127.29 190.46 125.049 192.291 123.034 192.962C121.714 193.449 120.603 194.395 119.897 195.637C119.191 196.878 118.934 198.334 119.171 199.75C119.409 201.166 120.125 202.451 121.195 203.38C122.265 204.309 123.621 204.822 125.023 204.829H385.637C388.057 204.915 390.464 204.43 392.672 203.413C394.881 202.395 396.831 200.872 398.374 198.96C399.917 197.048 401.011 194.799 401.571 192.386C402.131 189.973 402.143 187.46 401.606 185.042ZM322.064 325.179C319.545 311.635 311.989 306.605 303.45 306.605H241.691C240.099 306.618 238.577 307.277 237.458 308.438C236.339 309.598 235.715 311.165 235.722 312.796C235.708 314.32 236.25 315.795 237.243 316.931C238.235 318.067 239.606 318.782 241.087 318.936C243.051 319.297 245.167 321.929 246.502 328.43L252.849 364.548C254.009 369.984 256.925 374.861 261.125 378.39C265.325 381.92 270.564 383.896 275.996 384L312.845 383.819C315.27 383.94 317.69 383.487 319.917 382.495C322.143 381.504 324.117 380.001 325.686 378.103C327.254 376.205 328.375 373.962 328.961 371.549C329.547 369.136 329.583 366.616 329.066 364.187L322.064 325.179ZM240.407 294.376H307.43C307.933 294.366 308.433 294.288 308.916 294.144C315.112 292.802 315.414 287.643 314.608 282.509L306.07 234.498C303.728 222.011 296.65 217.084 287.356 217.084H225.974C224.464 217.101 223.016 217.704 221.922 218.771C220.828 219.839 220.171 221.291 220.081 222.836C219.992 224.38 220.477 225.902 221.44 227.094C222.403 228.287 223.771 229.061 225.269 229.261C227.309 229.648 229.551 232.46 230.861 239.58L237.334 276.317C237.508 276.979 237.547 277.671 237.447 278.348C237.347 279.026 237.111 279.676 236.754 280.255C236.396 280.835 235.925 281.332 235.37 281.715C234.815 282.099 234.189 282.36 233.53 282.483C232.199 282.955 231.074 283.897 230.357 285.14C229.641 286.383 229.378 287.846 229.617 289.269C229.857 290.692 230.581 291.981 231.662 292.907C232.744 293.833 234.111 294.335 235.52 294.324H240.306L240.407 294.376Z" fill="url(#paint0_linear_63_310)"/>
    </g>
    <defs>
        <linearGradient id="paint0_linear_63_310" x1="519.533" y1="162.597" x2="162.056" y2="270.251" gradientUnits="userSpaceOnUse">
            <stop stop-color="#FFF100"/>
            <stop offset="1" stop-color="#F05A28"/>
        </linearGradient>
        <clipPath id="clip0_63_310">
            <rect width="512" height="512" fill="white"/>
        </clipPath>
    </defs>
</svg>
