<svg width="512" height="512" viewBox="0 0 512 512" fill="none" xmlns="http://www.w3.org/2000/svg">
    <g clip-path="url(#clip0_63_262)">
        <path d="M0 128C0 57.3076 57.3076 0 128 0H384C454.692 0 512 57.3076 512 128V384C512 454.692 454.692 512 384 512H128C57.3076 512 0 454.692 0 384V128Z" fill="white"/>
        <path d="M138.802 214.909C138.802 214.909 166.397 190.918 248.07 190.918C322.995 190.918 344.053 207.893 365.44 214.909L253.867 269.354L138.802 214.909Z" fill="#C9781F"/>
        <path d="M127.152 287.117C127.658 297.523 138.067 292.709 142.783 289.455C147.257 286.367 148.568 288.934 148.96 282.838C149.217 278.834 149.68 274.825 149.452 270.803C142.682 270.19 135.322 271.799 129.773 275.825C126.916 277.912 121.555 284.518 127.164 287.117" fill="#F6D2A2"/>
        <path d="M127.152 287.117C128.668 286.556 130.274 286.154 131.3 284.786Z" fill="#C6B198"/>
        <path d="M151.21 163.142C111.318 151.924 140.981 101.258 173.016 122.103L151.21 163.142ZM328.451 118.3C360.028 96.1513 388.561 146.123 351.865 158.697L328.451 118.3Z" fill="#37ABC8"/>
        <path d="M335.244 415.196C343.266 420.153 357.925 435.138 345.893 442.406C334.333 452.977 327.863 430.803 317.716 427.731C322.086 421.806 327.624 416.402 335.244 415.199V415.196ZM191.953 432.131C182.539 433.586 177.239 442.068 169.392 446.375C161.996 450.779 159.168 444.966 158.501 443.785C157.327 443.256 157.439 444.276 155.649 442.478C148.793 431.672 162.792 423.773 170.082 418.406C180.236 416.356 186.6 425.146 191.953 432.131Z" fill="#F6D2A2"/>
        <path d="M152.876 149.141C147.614 146.376 143.753 142.587 146.971 136.507C149.952 130.88 155.489 131.49 160.752 134.27L152.876 149.141ZM343.552 143.859C348.815 141.08 352.676 137.303 349.457 131.223C346.476 125.594 340.939 126.206 335.676 128.986L343.552 143.859Z" fill="#077E91"/>
        <path d="M379.779 285.795C379.273 296.202 368.864 291.387 364.148 288.134C359.674 285.045 358.363 287.612 357.971 281.517C357.714 277.512 357.251 273.504 357.479 269.481C364.249 268.868 371.609 270.478 377.158 274.503C380.015 276.59 385.376 283.197 379.767 285.795" fill="#F6D2A2"/>
        <path d="M379.779 285.795C378.263 285.234 376.658 284.833 375.631 283.464Z" fill="#C6B198"/>
        <path d="M249.469 97.251C289.407 97.251 326.845 102.955 346.362 141.274C363.88 184.224 357.65 230.539 360.321 275.93C362.617 314.906 367.704 359.936 349.596 396.056C330.55 434.057 282.955 443.614 243.74 442.214C212.939 441.113 175.732 431.079 158.348 402.976C137.954 370.007 147.609 320.982 149.089 284.298C150.844 240.842 137.303 197.256 151.598 154.733C166.429 110.624 206.421 100.653 249.466 97.2536" fill="#37ABC8"/>
        <path d="M256.518 150.793C263.688 192.42 331.823 181.413 322.037 139.444C313.263 101.797 254.136 112.218 256.518 150.793ZM175.098 157.523C184.391 193.763 242.49 184.485 240.302 148.132C237.693 104.594 166.212 112.995 175.098 157.523ZM269.744 199.316C269.776 204.879 271.049 210.316 269.95 216.56C268.568 219.171 265.855 219.448 263.513 220.502C261.924 220.254 260.424 219.605 259.154 218.616C257.885 217.627 256.889 216.332 256.259 214.851C255.429 208.28 256.569 201.917 256.779 195.343L269.744 199.316Z" fill="white"/>
        <path d="M191.123 162.227C196.541 162.227 200.934 157.475 200.934 151.614C200.934 145.753 196.541 141.001 191.123 141.001C185.705 141.001 181.313 145.753 181.313 151.614C181.313 157.475 185.705 162.227 191.123 162.227Z" fill="black"/>
        <path d="M195.586 156.706C196.863 156.706 197.898 155.498 197.898 154.009C197.898 152.519 196.863 151.311 195.586 151.311C194.308 151.311 193.273 152.519 193.273 154.009C193.273 155.498 194.308 156.706 195.586 156.706Z" fill="white"/>
        <path d="M273.325 159.583C278.653 159.583 282.972 154.832 282.972 148.971C282.972 143.11 278.653 138.358 273.325 138.358C267.997 138.358 263.678 143.11 263.678 148.971C263.678 154.832 267.997 159.583 273.325 159.583Z" fill="black"/>
        <path d="M277.714 154.063C278.971 154.063 279.989 152.856 279.989 151.366C279.989 149.876 278.971 148.668 277.714 148.668C276.458 148.668 275.439 149.876 275.439 151.366C275.439 152.856 276.458 154.063 277.714 154.063Z" fill="white"/>
        <path d="M241.709 200.152C237.428 210.512 244.096 231.229 255.71 215.935C254.88 209.363 256.02 203 256.23 196.426L241.709 200.152Z" fill="white"/>
        <path d="M241.028 180.201C233.05 180.879 226.528 190.353 230.676 197.849C236.17 207.763 248.432 196.971 256.068 197.983C264.857 198.164 272.059 207.264 279.116 199.627C286.969 191.135 275.735 182.863 266.959 179.165L241.028 180.201Z" fill="#F6D2A2"/>
        <path d="M138.802 214.909C138.802 214.909 141.327 242.233 141.155 254.012C140.983 265.79 152.281 258.353 152.868 276.878C153.455 295.403 146.023 291.887 142.107 300.954C138.191 310.021 135.53 352.478 135.53 352.478C135.53 352.478 139.548 360.411 152.096 367.554C164.644 374.697 184.836 378.709 202.295 377.918C219.755 377.128 232.248 373.39 235.37 371.322C238.491 369.255 243.668 362.717 245.617 357.66C247.566 352.603 251.634 310.952 251.351 287.118C251.068 263.285 247.125 241.295 247.125 241.295L138.802 214.909Z" fill="#EF9325"/>
        <path d="M249.481 330.957C198.026 336.694 138.323 320.835 138.323 320.835C138.323 320.835 139.2 304.752 143.062 299.091C196.577 315.649 250.566 310.4 250.566 310.4C251.367 317.908 250.801 323.877 249.483 330.957H249.481ZM243.017 362.656C191.563 368.393 135.543 351.898 135.543 351.898C135.543 351.898 135.363 336.45 137.409 329.666C190.924 346.224 248.082 342.097 248.082 342.097C247.6 350.249 246.452 358.271 243.017 362.654V362.656Z" fill="#E5E5E5"/>
        <path d="M365.438 214.909L365.265 254.012C365.44 265.79 358.417 258.353 357.821 276.878C357.225 295.403 364.752 291.887 368.716 300.954C372.68 310.021 375.375 352.478 375.375 352.478C375.375 352.478 371.306 360.411 358.601 367.554C345.896 374.697 325.461 378.709 307.769 377.918C290.076 377.128 277.442 373.39 274.28 371.322C271.118 369.255 265.877 362.717 263.905 357.66C261.932 352.603 257.81 310.952 258.1 287.118C258.39 263.285 262.378 241.295 262.378 241.295L365.438 214.909Z" fill="#EF9325"/>
        <path d="M259.994 330.957C312.095 336.694 372.563 320.835 372.563 320.835C372.563 320.835 371.676 304.752 367.765 299.091C313.578 315.649 258.911 310.4 258.911 310.4C258.1 317.908 258.671 323.877 260.01 330.957H259.994ZM266.551 362.656C318.653 368.393 375.377 351.898 375.377 351.898C375.377 351.898 375.559 336.45 373.489 329.666C319.302 346.224 261.425 342.097 261.425 342.097C261.913 350.249 263.075 358.271 266.554 362.654L266.551 362.656Z" fill="#E5E5E5"/>
        <path d="M386.223 265.023C384.605 268.075 381.399 269.547 379.065 268.31L377.195 267.321C374.86 266.086 374.28 262.612 375.9 259.56L412.36 190.834C413.977 187.782 417.184 186.311 419.517 187.547L421.388 188.536C423.723 189.771 424.303 193.245 422.683 196.297L386.223 265.023Z" fill="#D2E261"/>
        <path d="M369.003 297.484C368.06 299.262 365.403 299.701 363.068 298.466L361.198 297.477C358.863 296.242 357.735 293.799 358.68 292.022L375.786 259.778C376.729 258 379.386 257.56 381.721 258.795L383.592 259.784C385.926 261.019 387.055 263.463 386.109 265.239L369.003 297.484Z" fill="black"/>
        <path d="M384.213 258.61L382.342 257.621C380.007 256.386 377.62 256.32 377.007 257.471L375.914 259.532C376.527 258.379 378.914 258.447 381.249 259.682L383.119 260.671C385.454 261.906 386.85 263.841 386.24 264.994L387.333 262.933C387.946 261.781 386.546 259.845 384.213 258.61Z" fill="#9B9B9B"/>
        <path d="M366.646 283.066C370.8 284.612 375.136 283.263 376.331 280.054C377.525 276.844 375.126 272.989 370.972 271.443C366.818 269.896 362.482 271.245 361.287 274.455C360.093 277.664 362.492 281.52 366.646 283.066Z" fill="#F6D2A2"/>
        <path d="M122.026 266.135C123.502 269.258 126.637 270.875 129.025 269.748L130.939 268.845C133.326 267.718 134.067 264.273 132.59 261.152L99.3229 190.83C97.8464 187.707 94.7119 186.09 92.3236 187.217L90.4113 188.119C88.0243 189.246 87.2834 192.691 88.76 195.813L122.026 266.135Z" fill="#D2E261"/>
        <path d="M137.737 299.345C138.598 301.164 141.233 301.725 143.607 300.598L145.521 299.695C147.908 298.568 149.147 296.18 148.286 294.36L132.692 261.369C131.831 259.551 129.196 258.99 126.822 260.117L124.909 261.02C122.522 262.147 121.282 264.535 122.143 266.355L137.737 299.345Z" fill="black"/>
        <path d="M124.328 259.818L126.242 258.916C128.629 257.789 131.018 257.831 131.59 259.01L132.587 261.119C132.029 259.94 129.64 259.898 127.239 261.024L125.326 261.926C122.939 263.053 121.452 264.922 122.01 266.1L121.012 263.991C120.455 262.813 121.938 260.943 124.328 259.817V259.818Z" fill="#9B9B9B"/>
        <path d="M138.315 272.341C134.161 273.887 131.761 277.742 132.956 280.952C134.15 284.161 138.487 285.51 142.641 283.964C146.795 282.418 149.194 278.563 148 275.353C146.805 272.143 142.469 270.795 138.315 272.341Z" fill="#F6D2A2"/>
        <path d="M155.891 178.762C154.304 181.642 150.563 182.628 147.533 180.963L144.048 179.05C141.018 177.385 139.848 173.702 141.434 170.822L177.701 104.955C179.287 102.075 183.028 101.089 186.059 102.753L189.544 104.667C192.574 106.331 193.355 109.444 192.158 112.895C179.453 149.501 155.891 178.762 155.891 178.762Z" fill="#960000"/>
        <path d="M165.484 141.14C176.513 121.11 183.746 103.883 182.033 101.93L182.072 101.857C182.025 101.831 181.974 101.814 181.929 101.788L181.91 101.779C164.962 92.6086 142.162 101.69 130.898 122.148C119.635 142.606 124.168 166.698 141.002 176.077L140.997 176.087C141.067 176.113 141.108 176.148 141.153 176.173L141.193 176.1C143.769 176.51 154.453 161.17 165.48 141.142L165.484 141.14Z" fill="#595959"/>
        <path d="M347.229 178.899C348.729 181.824 352.443 182.917 355.52 181.341L359.059 179.515C362.137 177.939 363.411 174.291 361.91 171.367L327.561 104.483C326.061 101.558 322.348 100.465 319.271 102.041L315.732 103.867C312.654 105.443 311.783 108.533 312.88 112.015C324.522 148.973 347.229 178.899 347.229 178.899Z" fill="#960000"/>
        <path d="M338.726 141.029C328.28 120.689 321.534 103.26 323.317 101.357L323.278 101.283C323.326 101.256 323.377 101.243 323.424 101.217L323.443 101.21C340.661 92.5314 363.178 102.253 373.845 123.041C384.512 143.829 379.284 167.766 362.188 176.657L362.193 176.667C362.123 176.693 362.081 176.725 362.033 176.749L361.993 176.675C359.407 177.009 349.169 161.369 338.723 141.03L338.726 141.029Z" fill="#595959"/>
        <path d="M372.735 132.439C372.735 132.439 360.044 100.698 345.327 83.9155C330.611 67.1332 186.616 61.4108 162.97 83.9155C139.324 106.42 130.408 132.439 130.408 132.439V125.395C130.408 125.395 141.345 94.4941 162.97 76.8718C184.594 59.2495 326.694 60.1756 345.026 76.8718C363.358 93.568 372.735 125.395 372.735 125.395V132.439Z" fill="#353535"/>
        <path d="M367.021 113.313C364.578 114.565 365.075 120.41 368.13 126.368C371.185 132.325 375.642 136.14 378.084 134.887C380.526 133.635 380.03 127.79 376.975 121.832C373.919 115.875 369.463 112.06 367.021 113.313Z" fill="#960000"/>
        <path d="M126.337 133.896C128.742 135.218 133.307 131.534 136.533 125.667C139.758 119.8 140.424 113.972 138.019 112.649C135.614 111.327 131.049 115.011 127.823 120.878C124.597 126.745 123.932 132.573 126.337 133.896Z" fill="#960000"/>
        <path opacity="0.6" d="M318.476 125.743H184.171C160.057 125.743 160.14 189.736 182.781 193.423L229.595 190.417C235.256 190.417 246.557 168.524 248.678 166.803C250.799 165.083 257.783 164.873 260.531 166.803C263.28 168.734 269.536 188.21 275.197 188.21L322.011 193.422C343.879 183.373 338.366 125.741 318.489 125.741L318.476 125.743Z" fill="white"/>
        <path opacity="0.5" d="M219.83 138.975C205.039 138.645 181.894 138.779 169.25 138.883C167.13 145.823 164.767 154.612 165.94 163.145L220.133 163.201C230.821 163.201 239.807 165.215 248.178 167.397C248.384 167.136 248.556 166.941 248.691 166.831C250.812 165.109 257.796 164.901 260.544 166.831C261.255 167.331 262.206 169.015 263.315 171.223C267.58 172.123 271.856 172.743 276.296 172.797L334.983 172.85C337.305 165.096 335.594 156.785 335.075 148.974C317.265 148.974 288.959 148.572 275.388 148.572C256.266 148.571 239.572 139.415 219.845 138.976L219.83 138.975Z" fill="white"/>
        <path d="M240.024 179.786C239.433 165.983 265.785 164.257 268.898 175.812C272.002 187.339 241.323 190.029 240.024 179.786Z" fill="black"/>
    </g>
    <defs>
        <clipPath id="clip0_63_262">
            <rect width="512" height="512" fill="white"/>
        </clipPath>
    </defs>
</svg>
