<svg width="512" height="512" viewBox="0 0 512 512" fill="none" xmlns="http://www.w3.org/2000/svg">
    <g clip-path="url(#clip0_59_71)">
        <path d="M0 128C0 57.3076 57.3076 0 128 0H384C454.692 0 512 57.3076 512 128V384C512 454.692 454.692 512 384 512H128C57.3076 512 0 454.692 0 384V128Z" fill="black"/>
        <path d="M175.6 106C163.869 106 153.317 111.05 146 119.095L132 135.822C130.252 137.906 129.2 140.667 129.2 143.6C129.2 146.811 130.178 149.846 132.232 152L223.6 243.368C225.778 245.589 229.043 246.8 232.4 246.8C239.027 246.8 244.4 241.427 244.4 234.8V118C244.4 111.373 239.027 106 232.4 106H175.6Z" fill="url(#paint0_linear_59_71)"/>
        <path d="M74.9345 204C69.348 210.878 66 219.648 66 229.2C66 238.443 69.1351 246.954 74.4 253.727L223.6 401.756C225.778 403.978 229.043 405.2 232.4 405.2C239.027 405.2 244.4 399.827 244.4 393.2V303.6C244.4 300.123 243.163 296.701 240.8 294.509L119.033 172.742C116.855 170.52 113.757 169.2 110.4 169.2C107.043 169.2 103.562 170.178 101.384 172.4L74.9345 204Z" fill="url(#paint1_linear_59_71)"/>
        <path d="M366.8 119.095C359.483 111.05 348.931 106 337.2 106H280.4C273.773 106 268.4 111.373 268.4 118V234.8C268.4 241.427 273.773 246.8 280.4 246.8C283.757 246.8 287.022 245.589 289.2 243.368L380.568 152C382.622 149.846 383.6 146.811 383.6 143.6C383.6 140.667 382.548 137.906 380.8 135.822L366.8 119.095Z" fill="url(#paint2_linear_59_71)"/>
        <path d="M446.8 229.2C446.8 219.648 443.452 210.878 437.865 204L411.416 172.4C409.238 170.178 405.757 169.2 402.4 169.2C399.043 169.2 395.945 170.52 393.767 172.742L272 294.509C269.637 296.701 268.4 300.123 268.4 303.6V393.2C268.4 399.827 273.773 405.2 280.4 405.2C283.757 405.2 287.022 403.978 289.2 401.756L438.4 253.727C443.665 246.954 446.8 238.443 446.8 229.2Z" fill="url(#paint3_linear_59_71)"/>
    </g>
    <defs>
        <linearGradient id="paint0_linear_59_71" x1="392.4" y1="152" x2="186.4" y2="362.8" gradientUnits="userSpaceOnUse">
            <stop stop-color="#FFFF80"/>
            <stop offset="0.997286" stop-color="#20FFFF"/>
        </linearGradient>
        <linearGradient id="paint1_linear_59_71" x1="392.4" y1="152" x2="186.4" y2="362.8" gradientUnits="userSpaceOnUse">
            <stop stop-color="#FFFF80"/>
            <stop offset="0.997286" stop-color="#20FFFF"/>
        </linearGradient>
        <linearGradient id="paint2_linear_59_71" x1="392.4" y1="152" x2="186.4" y2="362.8" gradientUnits="userSpaceOnUse">
            <stop stop-color="#FFFF80"/>
            <stop offset="0.997286" stop-color="#20FFFF"/>
        </linearGradient>
        <linearGradient id="paint3_linear_59_71" x1="392.4" y1="152" x2="186.4" y2="362.8" gradientUnits="userSpaceOnUse">
            <stop stop-color="#FFFF80"/>
            <stop offset="0.997286" stop-color="#20FFFF"/>
        </linearGradient>
        <clipPath id="clip0_59_71">
            <rect width="512" height="512" fill="white"/>
        </clipPath>
    </defs>
</svg>
