<svg width="512" height="512" viewBox="0 0 512 512" fill="none" xmlns="http://www.w3.org/2000/svg">
    <g clip-path="url(#clip0_110_12)">
        <path fill-rule="evenodd" clip-rule="evenodd" d="M78.8953 0H433.105C476.676 0 512 35.3229 512 78.8953V433.105C512 476.676 476.676 512 433.105 512H78.8953C35.3228 512 0 476.676 0 433.105V78.8953C0 35.3229 35.3228 0 78.8953 0Z" fill="#4C75A3"/>
        <path fill-rule="evenodd" clip-rule="evenodd" d="M251.756 358.161H272.616C272.616 358.161 278.915 357.464 282.136 353.983C285.097 350.783 285.002 344.778 285.002 344.778C285.002 344.778 284.594 316.662 297.583 312.521C310.392 308.44 326.837 339.695 344.266 351.714C357.446 360.806 367.462 358.816 367.462 358.816L414.07 358.161C414.07 358.161 438.45 356.65 426.889 337.395C425.943 335.822 420.154 323.151 392.234 297.119C363.007 269.871 366.925 274.279 402.128 227.148C423.567 198.445 432.136 180.923 429.459 173.419C426.907 166.268 411.137 168.157 411.137 168.157L358.662 168.483C358.662 168.483 354.768 167.951 351.885 169.684C349.065 171.379 347.254 175.339 347.254 175.339C347.254 175.339 338.946 197.549 327.873 216.44C304.506 256.297 295.161 258.406 291.341 255.928C282.455 250.159 284.675 232.758 284.675 220.392C284.675 181.765 290.508 165.66 273.318 161.491C267.614 160.108 263.412 159.194 248.823 159.044C230.098 158.853 214.253 159.102 205.279 163.518C199.309 166.455 194.703 172.998 197.51 173.374C200.979 173.838 208.832 175.504 212.996 181.195C218.375 188.546 218.187 205.048 218.187 205.048C218.187 205.048 221.278 250.518 210.971 256.165C203.898 260.038 194.194 252.13 173.361 215.97C162.689 197.448 154.629 176.971 154.629 176.971C154.629 176.971 153.076 173.146 150.304 171.098C146.942 168.616 142.243 167.83 142.243 167.83L92.3752 168.157C92.3752 168.157 84.8909 168.367 82.1406 171.637C79.6937 174.548 81.9452 180.561 81.9452 180.561C81.9452 180.561 120.984 272.31 165.191 318.547C205.731 360.944 251.756 358.161 251.756 358.161Z" fill="white"/>
    </g>
    <defs>
        <clipPath id="clip0_110_12">
            <rect width="512" height="512" fill="white"/>
        </clipPath>
    </defs>
</svg>
