<svg width="512" height="512" viewBox="0 0 512 512" fill="none" xmlns="http://www.w3.org/2000/svg">
    <g clip-path="url(#clip0_110_12)">
        <path d="M489.74 338.855C478.593 325.474 465.924 313.48 453.673 301.882C449.317 297.757 444.813 293.492 440.471 289.252C428.006 277.064 427.552 272.485 437.421 258.642C444.249 249.099 451.489 239.544 458.49 230.304C464.841 221.92 471.408 213.25 477.702 204.551L478.994 202.763C491.024 186.118 503.465 168.906 510.086 148.143C511.806 142.665 513.611 134.604 509.483 127.863C505.358 121.128 497.356 119.073 491.695 118.113C488.895 117.639 486.114 117.574 483.534 117.574L404.752 117.517L404.101 117.512C392.19 117.512 384.162 123.125 379.563 134.674C375.171 145.709 370.347 157.46 364.842 168.633C353.888 190.881 339.975 216.507 319.843 237.879L318.992 238.788C316.615 241.343 313.922 244.236 311.953 244.236C311.651 244.236 311.323 244.178 310.951 244.061C306.781 242.436 303.982 232.341 304.109 227.646C304.11 227.581 304.111 227.516 304.111 227.451L304.056 136.396C304.056 136.081 304.034 135.768 303.993 135.455C301.989 120.653 297.55 111.439 280.776 108.154C280.331 108.065 279.876 108.021 279.422 108.021H197.505C184.159 108.021 176.805 113.446 169.893 121.565C168.027 123.735 164.143 128.253 166.068 133.734C168.021 139.297 174.361 140.486 176.426 140.872C186.674 142.823 192.451 149.091 194.087 160.044C196.944 179.064 197.295 199.365 195.192 223.934C194.606 230.762 193.446 236.035 191.535 240.541C191.091 241.592 189.517 245.024 187.912 245.025C187.402 245.025 185.926 244.825 183.239 242.973C176.884 238.62 172.235 232.408 166.815 224.734C148.375 198.675 132.9 169.967 119.497 136.952C114.527 124.798 105.244 117.994 93.3464 117.794C80.2738 117.595 68.4216 117.499 57.1176 117.499C44.7665 117.499 33.3159 117.613 22.1345 117.846C12.5626 118.015 5.94166 120.884 2.45787 126.38C-1.03156 131.881 -0.804659 139.106 3.13293 147.853C34.6533 217.927 63.2325 268.878 95.8014 313.062C118.622 343.979 141.512 365.379 167.829 380.404C195.556 396.266 226.628 403.977 262.819 403.977C266.921 403.977 271.163 403.877 275.441 403.677C296.47 402.653 304.272 395.041 305.259 374.565C305.728 364.101 306.872 353.127 312.016 343.768C315.263 337.871 318.29 337.871 319.285 337.871C321.202 337.871 323.578 338.753 326.13 340.407C330.708 343.394 334.633 347.397 337.85 350.893C340.879 354.215 343.873 357.57 346.871 360.927C353.34 368.173 360.028 375.663 367.016 382.767C382.309 398.327 399.157 405.171 418.509 403.686H490.738C490.892 403.686 491.047 403.68 491.2 403.67C498.398 403.195 504.631 399.203 508.302 392.717C512.85 384.683 512.758 374.433 508.057 365.292C502.723 354.956 495.803 346.126 489.74 338.855Z" fill="black"/>
    </g>
    <defs>
        <clipPath id="clip0_110_12">
            <rect width="512" height="512" fill="white"/>
        </clipPath>
    </defs>
</svg>
