<svg width="512" height="512" viewBox="0 0 512 512" fill="none" xmlns="http://www.w3.org/2000/svg">
    <g clip-path="url(#clip0_63_170)">
        <path d="M0 128C0 57.3076 57.3076 0 128 0H384C454.692 0 512 57.3076 512 128V384C512 454.692 454.692 512 384 512H128C57.3076 512 0 454.692 0 384V128Z" fill="#DDFFEE"/>
        <path fill-rule="evenodd" clip-rule="evenodd" d="M366.168 113.068C358.867 105.04 348.337 100 336.63 100H175.37C163.663 100 153.133 105.04 145.832 113.068L74.9158 197.794C69.341 204.658 66 213.409 66 222.941C66 232.165 69.1285 240.658 74.3824 247.417L227.66 399.65C234.892 406.941 244.919 411.345 256 411.345C267.024 411.345 277.005 406.875 284.229 399.65L437.618 247.417C442.871 240.658 446 232.165 446 222.941C446 213.409 442.659 204.658 437.084 197.794L366.168 113.068ZM240.433 288.113C242.791 290.3 244.025 293.715 244.025 297.185V381.839L95.458 234.285C92.5489 231.393 90.7479 227.367 90.7479 222.941C90.7479 218.979 92.2599 215.428 94.6493 212.637L126.994 174.674L240.433 288.113ZM244.025 123.95V257.836L142.575 156.386L165.391 129.607C168.32 126.096 172.835 123.95 177.765 123.95H244.025ZM270.769 288.113C268.411 290.3 267.176 293.715 267.176 297.185V381.839L415.744 234.285C418.653 231.393 420.454 227.367 420.454 222.941C420.454 218.979 418.942 215.428 416.552 212.637L384.208 174.674L270.769 288.113ZM267.176 123.95V257.836L368.626 156.386L345.811 129.607C342.882 126.096 338.367 123.95 333.437 123.95H267.176Z" fill="#006622"/>
    </g>
    <defs>
        <clipPath id="clip0_63_170">
            <rect width="512" height="512" fill="white"/>
        </clipPath>
    </defs>
</svg>
