<svg width="512" height="512" viewBox="0 0 512 512" fill="none" xmlns="http://www.w3.org/2000/svg">
    <g clip-path="url(#clip0_63_262)">
        <path d="M99.7355 201.212C99.7355 201.212 136.53 169.225 245.428 169.225C345.327 169.225 373.404 191.857 401.92 201.212L253.156 273.806L99.7355 201.212Z" fill="#C9781F"/>
        <path d="M84.203 297.49C84.8778 311.365 98.7565 304.946 105.044 300.608C111.009 296.49 112.757 299.913 113.28 291.785C113.623 286.446 114.241 281.101 113.936 275.738C104.91 274.92 95.0955 277.067 87.697 282.434C83.8882 285.216 76.7401 294.025 84.2186 297.49" fill="#F6D2A2"/>
        <path d="M84.2029 297.489C86.2238 296.741 88.3648 296.205 89.7335 294.381Z" fill="#C6B198"/>
        <path d="M116.281 132.19C63.091 117.233 102.642 49.6779 145.355 77.4719L116.281 132.19ZM352.602 72.4005C394.704 42.869 432.749 109.497 383.82 126.263L352.602 72.4005Z" fill="#37ABC8"/>
        <path d="M361.66 468.262C372.356 474.871 391.901 494.851 375.858 504.542C360.444 518.636 351.817 489.072 338.288 484.976C344.115 477.075 351.499 469.869 361.66 468.266V468.262ZM170.604 490.842C158.052 492.781 150.986 504.091 140.523 509.834C130.662 515.706 126.891 507.956 126.001 506.38C124.436 505.676 124.585 507.036 122.199 504.637C113.058 490.23 131.723 479.697 141.443 472.542C154.981 469.808 163.467 481.529 170.604 490.842Z" fill="#F6D2A2"/>
        <path d="M118.501 113.523C111.486 109.835 106.338 104.783 110.628 96.6768C114.602 89.1739 121.985 89.9879 129.003 93.6941L118.501 113.523ZM372.736 106.479C379.754 102.774 384.902 97.7377 380.61 89.6313C376.636 82.1267 369.253 82.9424 362.235 86.6486L372.736 106.479Z" fill="#077E91"/>
        <path d="M421.039 295.728C420.364 309.603 406.485 303.184 400.198 298.846C394.233 294.728 392.485 298.15 391.961 290.023C391.619 284.684 391.001 279.339 391.306 273.976C400.332 273.158 410.146 275.304 417.545 280.671C421.354 283.454 428.502 292.263 421.023 295.728" fill="#F6D2A2"/>
        <path d="M421.039 295.727C419.018 294.979 416.877 294.444 415.508 292.619Z" fill="#C6B198"/>
        <path d="M247.292 44.3345C300.543 44.3345 350.461 51.94 376.483 103.032C399.84 160.298 391.534 222.052 395.095 282.574C398.156 334.541 404.939 394.581 380.796 442.741C355.4 493.409 291.94 506.152 239.653 504.286C198.586 502.818 148.976 489.438 125.797 451.968C98.6051 408.01 111.479 342.642 113.453 293.731C115.792 235.79 97.7373 177.675 116.797 120.977C136.572 62.1647 189.895 48.8703 247.289 44.338" fill="#37ABC8"/>
        <path d="M256.691 115.724C266.251 171.226 357.098 156.551 344.05 100.593C332.351 50.3961 253.515 64.2905 256.691 115.724ZM148.13 124.698C160.522 173.018 237.987 160.647 235.069 112.176C231.591 54.125 136.283 65.3271 148.13 124.698ZM274.326 180.421C274.368 187.839 276.065 195.088 274.601 203.414C272.757 206.895 269.14 207.264 266.018 208.669C263.899 208.339 261.898 207.473 260.206 206.155C258.514 204.837 257.186 203.109 256.346 201.135C255.238 192.373 256.758 183.889 257.038 175.124L274.326 180.421Z" fill="white"/>
        <path d="M169.498 130.969C176.722 130.969 182.578 124.633 182.578 116.819C182.578 109.004 176.722 102.668 169.498 102.668C162.274 102.668 156.417 109.004 156.417 116.819C156.417 124.633 162.274 130.969 169.498 130.969Z" fill="black"/>
        <path d="M175.448 123.608C177.151 123.608 178.531 121.998 178.531 120.011C178.531 118.025 177.151 116.415 175.448 116.415C173.745 116.415 172.364 118.025 172.364 120.011C172.364 121.998 173.745 123.608 175.448 123.608Z" fill="white"/>
        <path d="M279.1 127.445C286.204 127.445 291.963 121.11 291.963 113.295C291.963 105.48 286.204 99.145 279.1 99.145C271.996 99.145 266.237 105.48 266.237 113.295C266.237 121.11 271.996 127.445 279.1 127.445Z" fill="black"/>
        <path d="M284.952 120.084C286.628 120.084 287.985 118.474 287.985 116.488C287.985 114.501 286.628 112.891 284.952 112.891C283.277 112.891 281.919 114.501 281.919 116.488C281.919 118.474 283.277 120.084 284.952 120.084Z" fill="white"/>
        <path d="M236.946 181.535C231.238 195.35 240.128 222.972 255.614 202.58C254.506 193.818 256.026 185.334 256.306 176.568L236.946 181.535Z" fill="white"/>
        <path d="M236.038 154.935C225.401 155.839 216.705 168.471 222.235 178.466C229.561 191.684 245.909 177.295 256.09 178.645C267.809 178.885 277.413 191.019 286.822 180.836C297.292 169.514 282.314 158.484 270.613 153.554L236.038 154.935Z" fill="#F6D2A2"/>
        <path d="M99.7355 201.212C99.7355 201.212 103.103 237.644 102.873 253.349C102.643 269.054 117.708 259.137 118.491 283.837C119.274 308.537 109.364 303.85 104.143 315.939C98.9216 328.028 95.3736 384.637 95.3736 384.637C95.3736 384.637 100.73 395.215 117.461 404.739C134.192 414.263 161.115 419.612 184.394 418.559C207.673 417.505 224.331 412.52 228.493 409.763C232.655 407.007 239.558 398.29 242.156 391.547C244.754 384.804 250.179 329.27 249.802 297.492C249.424 265.713 244.167 236.394 244.167 236.394L99.7355 201.212Z" fill="#EF9325"/>
        <path d="M247.308 355.943C178.702 363.592 99.0974 342.447 99.0974 342.447C99.0974 342.447 100.266 321.003 105.416 313.455C176.77 335.532 248.755 328.533 248.755 328.533C249.823 338.544 249.068 346.503 247.311 355.943H247.308ZM238.69 398.209C170.084 405.858 95.3912 383.864 95.3912 383.864C95.3912 383.864 95.1512 363.267 97.8783 354.221C169.232 376.299 245.443 370.796 245.443 370.796C244.8 381.666 243.269 392.362 238.69 398.205V398.209Z" fill="#E5E5E5"/>
        <path d="M401.918 201.212L401.687 253.349C401.92 269.054 392.556 259.137 391.761 283.837C390.966 308.537 401.003 303.85 406.289 315.939C411.574 328.028 415.167 384.637 415.167 384.637C415.167 384.637 409.741 395.215 392.801 404.739C375.862 414.263 348.615 419.612 325.025 418.559C301.435 417.505 284.589 412.52 280.373 409.763C276.157 407.007 269.169 398.29 266.54 391.547C263.91 384.804 258.414 329.27 258.8 297.492C259.186 265.713 264.505 236.394 264.505 236.394L401.918 201.212Z" fill="#EF9325"/>
        <path d="M261.326 355.943C330.794 363.592 411.418 342.447 411.418 342.447C411.418 342.447 410.235 321.003 405.021 313.455C332.771 335.532 259.882 328.533 259.882 328.533C258.8 338.544 259.562 346.503 261.346 355.943H261.326ZM270.068 398.209C339.537 405.858 415.169 383.864 415.169 383.864C415.169 383.864 415.413 363.267 412.652 354.221C340.403 376.299 263.233 370.796 263.233 370.796C263.884 381.666 265.434 392.362 270.072 398.205L270.068 398.209Z" fill="#E5E5E5"/>
        <path d="M429.631 268.031C427.474 272.101 423.199 274.063 420.088 272.414L417.594 271.096C414.48 269.449 413.706 264.817 415.867 260.748L464.48 169.113C466.637 165.044 470.912 163.082 474.023 164.73L476.517 166.049C479.631 167.696 480.404 172.327 478.244 176.397L429.631 268.031Z" fill="#D2E261"/>
        <path d="M406.671 311.312C405.414 313.682 401.871 314.268 398.758 312.621L396.264 311.303C393.151 309.656 391.647 306.399 392.907 304.03L415.715 261.037C416.973 258.666 420.515 258.08 423.628 259.727L426.122 261.046C429.236 262.693 430.74 265.95 429.479 268.319L406.671 311.312Z" fill="black"/>
        <path d="M426.95 259.481L424.456 258.162C421.343 256.515 418.161 256.426 417.343 257.962L415.886 260.71C416.703 259.173 419.886 259.263 422.999 260.91L425.493 262.228C428.606 263.875 430.467 266.455 429.653 267.992L431.111 265.244C431.928 263.708 430.062 261.128 426.95 259.481Z" fill="#9B9B9B"/>
        <path d="M403.528 292.089C409.067 294.15 414.849 292.352 416.441 288.072C418.034 283.793 414.835 278.652 409.296 276.591C403.757 274.53 397.976 276.328 396.383 280.607C394.79 284.887 397.989 290.027 403.528 292.089Z" fill="#F6D2A2"/>
        <path d="M77.3679 269.514C79.3367 273.677 83.5159 275.834 86.7004 274.331L89.2518 273.128C92.4345 271.625 93.4224 267.032 91.4536 262.87L47.0973 169.107C45.1285 164.943 40.9492 162.787 37.7648 164.289L35.2151 165.493C32.0324 166.995 31.0446 171.589 33.0133 175.751L77.3679 269.514Z" fill="#D2E261"/>
        <path d="M98.3163 313.794C99.4642 316.219 102.977 316.966 106.143 315.464L108.694 314.26C111.877 312.758 113.529 309.573 112.381 307.147L91.5892 263.159C90.4413 260.735 86.9281 259.987 83.7628 261.49L81.2114 262.693C78.0287 264.196 76.3765 267.38 77.5243 269.806L98.3163 313.794Z" fill="black"/>
        <path d="M80.4375 261.091L82.9889 259.888C86.1716 258.385 89.3578 258.441 90.1196 260.013L91.4501 262.825C90.7057 261.253 87.5195 261.197 84.3194 262.698L81.768 263.902C78.5853 265.405 76.6026 267.897 77.347 269.467L76.0165 266.655C75.2739 265.085 77.2513 262.591 80.4375 261.09V261.091Z" fill="#9B9B9B"/>
        <path d="M99.0865 277.788C93.5475 279.849 90.3485 284.99 91.9412 289.269C93.534 293.549 99.3154 295.347 104.854 293.285C110.393 291.224 113.592 286.083 112 281.804C110.407 277.524 104.625 275.726 99.0865 277.788Z" fill="#F6D2A2"/>
        <path d="M122.521 153.015C120.406 156.855 115.418 158.17 111.378 155.951L106.731 153.399C102.691 151.18 101.13 146.269 103.245 142.428L151.602 54.6062C153.717 50.7661 158.705 49.4513 162.745 51.6705L167.392 54.2219C171.432 56.4411 172.474 60.5908 170.877 65.1927C153.938 114.001 122.521 153.015 122.521 153.015Z" fill="#960000"/>
        <path d="M135.312 102.853C150.017 76.1462 159.661 53.1767 157.378 50.5731L157.43 50.4757C157.367 50.4409 157.299 50.4183 157.238 50.3835L157.214 50.3714C134.617 38.1449 104.216 50.2531 89.1978 77.5306C74.1799 104.808 80.2236 136.931 102.67 149.436L102.663 149.45C102.757 149.484 102.81 149.531 102.871 149.564L102.923 149.467C106.358 150.013 120.604 129.56 135.307 102.857L135.312 102.853Z" fill="#595959"/>
        <path d="M377.639 153.199C379.639 157.099 384.591 158.556 388.693 156.455L393.412 154.02C397.516 151.919 399.215 147.055 397.214 143.156L351.416 53.9768C349.415 50.0775 344.464 48.6201 340.361 50.721L335.643 53.1559C331.538 55.2568 330.378 59.377 331.841 64.0206C347.363 113.297 377.639 153.199 377.639 153.199Z" fill="#960000"/>
        <path d="M366.301 102.705C352.374 75.5856 343.379 52.3466 345.756 49.8091L345.704 49.7099C345.768 49.6752 345.836 49.6578 345.899 49.623L345.925 49.6126C368.882 38.0417 398.904 51.0039 413.127 78.7214C427.35 106.439 420.38 138.355 397.584 150.209L397.591 150.223C397.497 150.258 397.442 150.3 397.377 150.333L397.325 150.233C393.876 150.679 380.225 129.826 366.298 102.707L366.301 102.705Z" fill="#595959"/>
        <path d="M411.647 91.2519C411.647 91.2519 394.725 48.9305 375.103 26.554C355.482 4.17762 163.487 -3.45221 131.959 26.554C100.431 56.5603 88.544 91.2519 88.544 91.2519V81.8603C88.544 81.8603 103.127 40.6589 131.959 17.1624C160.792 -6.33405 350.259 -5.09923 374.702 17.1624C399.144 39.424 411.647 81.8603 411.647 81.8603V91.2519Z" fill="#353535"/>
        <path d="M404.028 65.7501C400.772 67.42 401.434 75.2132 405.507 83.1568C409.581 91.1004 415.523 96.1862 418.779 94.5163C422.036 92.8464 421.373 85.0531 417.3 77.1095C413.226 69.166 407.284 64.0801 404.028 65.7501Z" fill="#960000"/>
        <path d="M83.116 93.1944C86.3228 94.9576 92.4092 90.0454 96.7103 82.2227C101.011 74.4 101.899 66.6291 98.6917 64.8659C95.4848 63.1027 89.3984 68.0149 85.0973 75.8376C80.7962 83.6603 79.9091 91.4312 83.116 93.1944Z" fill="#960000"/>
        <path opacity="0.6" d="M339.302 82.3235H160.228C128.076 82.3235 128.187 167.648 158.374 172.565L220.794 168.556C228.342 168.556 243.41 139.365 246.238 137.071C249.066 134.777 258.378 134.497 262.042 137.071C265.706 139.645 274.048 165.613 281.596 165.613L344.015 172.563C373.173 159.164 365.821 82.3218 339.319 82.3218L339.302 82.3235Z" fill="white"/>
        <path opacity="0.5" d="M207.774 99.9666C188.052 99.5265 157.192 99.7057 140.334 99.8448C137.507 109.097 134.356 120.816 135.919 132.194L208.178 132.269C222.429 132.269 234.41 134.954 245.57 137.864C245.845 137.516 246.075 137.255 246.255 137.109C249.083 134.813 258.395 134.535 262.059 137.109C263.007 137.775 264.275 140.02 265.754 142.965C271.441 144.165 277.142 144.991 283.062 145.064L361.312 145.133C364.407 134.796 362.126 123.713 361.433 113.299C337.686 113.299 299.946 112.764 281.851 112.764C256.355 112.762 234.097 100.554 207.793 99.9683L207.774 99.9666Z" fill="white"/>
        <path d="M234.699 154.382C233.911 135.978 269.048 133.677 273.197 149.083C277.337 164.452 236.431 168.04 234.699 154.382Z" fill="black"/>
    </g>
    <defs>
        <clipPath id="clip0_63_262">
            <rect width="512" height="512" fill="white"/>
        </clipPath>
    </defs>
</svg>
